<mxfile host="app.diagrams.net" modified="2024-06-04T11:43:29.531Z" agent="Mozilla/5.0 (Windows NT 10.0; Win64; x64) AppleWebKit/537.36 (KHTML, like Gecko) Chrome/124.0.0.0 Safari/537.36 OPR/110.0.0.0 (Edition Yx 03)" etag="VNA_8M-f7Hn2W4dZH7qh" version="24.4.13" type="device">
  <diagram name="Страница — 1" id="0pK93NPOE4e2W0qk-HBi">
    <mxGraphModel dx="1432" dy="747" grid="1" gridSize="10" guides="1" tooltips="1" connect="1" arrows="1" fold="1" page="1" pageScale="1" pageWidth="827" pageHeight="1169" math="0" shadow="0">
      <root>
        <mxCell id="0" />
        <mxCell id="1" parent="0" />
        <mxCell id="HoOUq6zneQxh64L3T27h-1" value="Менеджер" style="shape=umlActor;verticalLabelPosition=bottom;verticalAlign=top;html=1;outlineConnect=0;" parent="1" vertex="1">
          <mxGeometry x="170" y="420" width="30" height="60" as="geometry" />
        </mxCell>
        <mxCell id="HoOUq6zneQxh64L3T27h-2" value="Клиент" style="shape=umlActor;verticalLabelPosition=bottom;verticalAlign=top;html=1;outlineConnect=0;" parent="1" vertex="1">
          <mxGeometry x="620" y="420" width="30" height="60" as="geometry" />
        </mxCell>
        <mxCell id="HoOUq6zneQxh64L3T27h-13" value="Формирование&lt;div&gt;заказа на сайте&lt;/div&gt;" style="ellipse;whiteSpace=wrap;html=1;" parent="1" vertex="1">
          <mxGeometry x="330" y="160" width="130" height="80" as="geometry" />
        </mxCell>
        <mxCell id="HoOUq6zneQxh64L3T27h-15" value="Уточнение подробностей заказа" style="ellipse;whiteSpace=wrap;html=1;" parent="1" vertex="1">
          <mxGeometry x="330" y="270" width="130" height="80" as="geometry" />
        </mxCell>
        <mxCell id="HoOUq6zneQxh64L3T27h-16" value="Оформление и изменение статуса заказа" style="ellipse;whiteSpace=wrap;html=1;" parent="1" vertex="1">
          <mxGeometry x="330" y="380" width="130" height="80" as="geometry" />
        </mxCell>
        <mxCell id="HoOUq6zneQxh64L3T27h-17" value="Списание товара из базы данных" style="ellipse;whiteSpace=wrap;html=1;" parent="1" vertex="1">
          <mxGeometry x="325" y="490" width="140" height="80" as="geometry" />
        </mxCell>
        <mxCell id="HoOUq6zneQxh64L3T27h-18" value="Отправление и изменение статуса заказа" style="ellipse;whiteSpace=wrap;html=1;" parent="1" vertex="1">
          <mxGeometry x="325" y="600" width="140" height="80" as="geometry" />
        </mxCell>
        <mxCell id="HoOUq6zneQxh64L3T27h-19" value="Подтверждение получения заказа" style="ellipse;whiteSpace=wrap;html=1;" parent="1" vertex="1">
          <mxGeometry x="325" y="710" width="140" height="80" as="geometry" />
        </mxCell>
        <mxCell id="HoOUq6zneQxh64L3T27h-20" value="" style="endArrow=classic;html=1;rounded=0;entryX=1;entryY=0.5;entryDx=0;entryDy=0;" parent="1" target="HoOUq6zneQxh64L3T27h-13" edge="1">
          <mxGeometry width="50" height="50" relative="1" as="geometry">
            <mxPoint x="610" y="450" as="sourcePoint" />
            <mxPoint x="430" y="460" as="targetPoint" />
          </mxGeometry>
        </mxCell>
        <mxCell id="HoOUq6zneQxh64L3T27h-21" value="" style="endArrow=classic;html=1;rounded=0;entryX=1;entryY=0.5;entryDx=0;entryDy=0;" parent="1" target="HoOUq6zneQxh64L3T27h-15" edge="1">
          <mxGeometry width="50" height="50" relative="1" as="geometry">
            <mxPoint x="610" y="450" as="sourcePoint" />
            <mxPoint x="470" y="210" as="targetPoint" />
          </mxGeometry>
        </mxCell>
        <mxCell id="HoOUq6zneQxh64L3T27h-22" value="" style="endArrow=classic;html=1;rounded=0;entryX=0;entryY=0.5;entryDx=0;entryDy=0;" parent="1" target="HoOUq6zneQxh64L3T27h-16" edge="1">
          <mxGeometry width="50" height="50" relative="1" as="geometry">
            <mxPoint x="200" y="450" as="sourcePoint" />
            <mxPoint x="470" y="320" as="targetPoint" />
          </mxGeometry>
        </mxCell>
        <mxCell id="HoOUq6zneQxh64L3T27h-23" value="" style="endArrow=classic;html=1;rounded=0;entryX=0;entryY=0.5;entryDx=0;entryDy=0;" parent="1" target="HoOUq6zneQxh64L3T27h-17" edge="1">
          <mxGeometry width="50" height="50" relative="1" as="geometry">
            <mxPoint x="200" y="450" as="sourcePoint" />
            <mxPoint x="340" y="430" as="targetPoint" />
          </mxGeometry>
        </mxCell>
        <mxCell id="HoOUq6zneQxh64L3T27h-24" value="" style="endArrow=classic;html=1;rounded=0;entryX=0;entryY=0.5;entryDx=0;entryDy=0;" parent="1" target="HoOUq6zneQxh64L3T27h-18" edge="1">
          <mxGeometry width="50" height="50" relative="1" as="geometry">
            <mxPoint x="200" y="450" as="sourcePoint" />
            <mxPoint x="335" y="540" as="targetPoint" />
          </mxGeometry>
        </mxCell>
        <mxCell id="HoOUq6zneQxh64L3T27h-25" value="" style="endArrow=classic;html=1;rounded=0;entryX=1;entryY=0.5;entryDx=0;entryDy=0;" parent="1" target="HoOUq6zneQxh64L3T27h-19" edge="1">
          <mxGeometry width="50" height="50" relative="1" as="geometry">
            <mxPoint x="610" y="450" as="sourcePoint" />
            <mxPoint x="470" y="320" as="targetPoint" />
          </mxGeometry>
        </mxCell>
        <mxCell id="HoOUq6zneQxh64L3T27h-26" value="" style="endArrow=classic;html=1;rounded=0;entryX=0;entryY=0.5;entryDx=0;entryDy=0;" parent="1" target="HoOUq6zneQxh64L3T27h-15" edge="1">
          <mxGeometry width="50" height="50" relative="1" as="geometry">
            <mxPoint x="200" y="450" as="sourcePoint" />
            <mxPoint x="340" y="430" as="targetPoint" />
          </mxGeometry>
        </mxCell>
        <mxCell id="HoOUq6zneQxh64L3T27h-27" value="" style="endArrow=classic;html=1;rounded=0;entryX=0;entryY=0.5;entryDx=0;entryDy=0;" parent="1" target="HoOUq6zneQxh64L3T27h-19" edge="1">
          <mxGeometry width="50" height="50" relative="1" as="geometry">
            <mxPoint x="200" y="450" as="sourcePoint" />
            <mxPoint x="335" y="650" as="targetPoint" />
          </mxGeometry>
        </mxCell>
        <mxCell id="eFRtiUDkfTdz-DHQR8uv-1" value="" style="endArrow=classic;html=1;rounded=0;entryX=1;entryY=0.5;entryDx=0;entryDy=0;" edge="1" parent="1" target="HoOUq6zneQxh64L3T27h-16">
          <mxGeometry width="50" height="50" relative="1" as="geometry">
            <mxPoint x="610" y="450" as="sourcePoint" />
            <mxPoint x="470" y="320" as="targetPoint" />
          </mxGeometry>
        </mxCell>
      </root>
    </mxGraphModel>
  </diagram>
</mxfile>
